<?xml version="1.0" encoding="UTF-8" standalone="no"?>
<!DOCTYPE svg PUBLIC "-//W3C//DTD SVG 1.1//EN"
 "http://www.w3.org/Graphics/SVG/1.1/DTD/svg11.dtd">
<!-- Generated by graphviz version 2.38.0 (20140413.2041)
 -->
<!-- Title: G Pages: 1 -->
<svg width="399pt" height="836pt"
 viewBox="0.00 0.00 399.39 836.00" xmlns="http://www.w3.org/2000/svg" xmlns:xlink="http://www.w3.org/1999/xlink">
<g id="graph0" class="graph" transform="scale(1 1) rotate(0) translate(4 832)">
<title>G</title>
<polygon fill="white" stroke="none" points="-4,4 -4,-832 395.389,-832 395.389,4 -4,4"/>
<!-- 24 -->
<g id="node1" class="node"><title>24</title>
<ellipse fill="none" stroke="red" cx="137.745" cy="-810" rx="35.194" ry="18"/>
<text text-anchor="middle" x="137.745" y="-806.3" font-family="Times New Roman,serif" font-size="14.00">24 unit</text>
</g>
<!-- 23 -->
<g id="node2" class="node"><title>23</title>
<ellipse fill="none" stroke="red" cx="137.745" cy="-738" rx="40.0939" ry="18"/>
<text text-anchor="middle" x="137.745" y="-734.3" font-family="Times New Roman,serif" font-size="14.00">23 class</text>
</g>
<!-- 24&#45;&gt;23 -->
<g id="edge1" class="edge"><title>24&#45;&gt;23</title>
<path fill="none" stroke="black" d="M137.745,-791.697C137.745,-783.983 137.745,-774.712 137.745,-766.112"/>
<polygon fill="black" stroke="black" points="141.245,-766.104 137.745,-756.104 134.245,-766.104 141.245,-766.104"/>
</g>
<!-- 21 -->
<g id="node3" class="node"><title>21</title>
<ellipse fill="none" stroke="red" cx="137.745" cy="-666" rx="42.4939" ry="18"/>
<text text-anchor="middle" x="137.745" y="-662.3" font-family="Times New Roman,serif" font-size="14.00">21 block</text>
</g>
<!-- 23&#45;&gt;21 -->
<g id="edge2" class="edge"><title>23&#45;&gt;21</title>
<path fill="none" stroke="black" d="M137.745,-719.697C137.745,-711.983 137.745,-702.712 137.745,-694.112"/>
<polygon fill="black" stroke="black" points="141.245,-694.104 137.745,-684.104 134.245,-694.104 141.245,-694.104"/>
</g>
<!-- 20 -->
<g id="node4" class="node"><title>20</title>
<ellipse fill="none" stroke="red" cx="137.745" cy="-594" rx="46.2923" ry="18"/>
<text text-anchor="middle" x="137.745" y="-590.3" font-family="Times New Roman,serif" font-size="14.00">20 private</text>
</g>
<!-- 21&#45;&gt;20 -->
<g id="edge3" class="edge"><title>21&#45;&gt;20</title>
<path fill="none" stroke="black" d="M137.745,-647.697C137.745,-639.983 137.745,-630.712 137.745,-622.112"/>
<polygon fill="black" stroke="black" points="141.245,-622.104 137.745,-612.104 134.245,-622.104 141.245,-622.104"/>
</g>
<!-- 19 -->
<g id="node5" class="node"><title>19</title>
<ellipse fill="none" stroke="red" cx="137.745" cy="-522" rx="51.9908" ry="18"/>
<text text-anchor="middle" x="137.745" y="-518.3" font-family="Times New Roman,serif" font-size="14.00">19 function</text>
</g>
<!-- 20&#45;&gt;19 -->
<g id="edge4" class="edge"><title>20&#45;&gt;19</title>
<path fill="none" stroke="black" d="M137.745,-575.697C137.745,-567.983 137.745,-558.712 137.745,-550.112"/>
<polygon fill="black" stroke="black" points="141.245,-550.104 137.745,-540.104 134.245,-550.104 141.245,-550.104"/>
</g>
<!-- 5 -->
<g id="node6" class="node"><title>5</title>
<ellipse fill="none" stroke="red" cx="83.7445" cy="-450" rx="48.1917" ry="18"/>
<text text-anchor="middle" x="83.7445" y="-446.3" font-family="Times New Roman,serif" font-size="14.00">5 namebar</text>
</g>
<!-- 19&#45;&gt;5 -->
<g id="edge5" class="edge"><title>19&#45;&gt;5</title>
<path fill="none" stroke="black" d="M124.947,-504.411C118.289,-495.781 110.021,-485.062 102.642,-475.497"/>
<polygon fill="black" stroke="black" points="105.329,-473.25 96.4499,-467.47 99.7867,-477.526 105.329,-473.25"/>
</g>
<!-- 18 -->
<g id="node7" class="node"><title>18</title>
<ellipse fill="none" stroke="red" cx="191.745" cy="-450" rx="42.4939" ry="18"/>
<text text-anchor="middle" x="191.745" y="-446.3" font-family="Times New Roman,serif" font-size="14.00">18 block</text>
</g>
<!-- 19&#45;&gt;18 -->
<g id="edge6" class="edge"><title>19&#45;&gt;18</title>
<path fill="none" stroke="black" d="M150.542,-504.411C157.2,-495.781 165.468,-485.062 172.847,-475.497"/>
<polygon fill="black" stroke="black" points="175.702,-477.526 179.039,-467.47 170.16,-473.25 175.702,-477.526"/>
</g>
<!-- 17 -->
<g id="node8" class="node"><title>17</title>
<ellipse fill="none" stroke="red" cx="191.745" cy="-378" rx="27" ry="18"/>
<text text-anchor="middle" x="191.745" y="-374.3" font-family="Times New Roman,serif" font-size="14.00">17 if</text>
</g>
<!-- 18&#45;&gt;17 -->
<g id="edge7" class="edge"><title>18&#45;&gt;17</title>
<path fill="none" stroke="black" d="M191.745,-431.697C191.745,-423.983 191.745,-414.712 191.745,-406.112"/>
<polygon fill="black" stroke="black" points="195.245,-406.104 191.745,-396.104 188.245,-406.104 195.245,-406.104"/>
</g>
<!-- 14 -->
<g id="node9" class="node"><title>14</title>
<ellipse fill="none" stroke="red" cx="191.745" cy="-306" rx="55.7903" ry="18"/>
<text text-anchor="middle" x="191.745" y="-302.3" font-family="Times New Roman,serif" font-size="14.00">14 condition</text>
</g>
<!-- 17&#45;&gt;14 -->
<g id="edge8" class="edge"><title>17&#45;&gt;14</title>
<path fill="none" stroke="black" d="M191.745,-359.697C191.745,-351.983 191.745,-342.712 191.745,-334.112"/>
<polygon fill="black" stroke="black" points="195.245,-334.104 191.745,-324.104 188.245,-334.104 195.245,-334.104"/>
</g>
<!-- 13 -->
<g id="node10" class="node"><title>13</title>
<ellipse fill="none" stroke="red" cx="191.745" cy="-234" rx="38.1938" ry="18"/>
<text text-anchor="middle" x="191.745" y="-230.3" font-family="Times New Roman,serif" font-size="14.00">13 expr</text>
</g>
<!-- 14&#45;&gt;13 -->
<g id="edge9" class="edge"><title>14&#45;&gt;13</title>
<path fill="none" stroke="black" d="M191.745,-287.697C191.745,-279.983 191.745,-270.712 191.745,-262.112"/>
<polygon fill="black" stroke="black" points="195.245,-262.104 191.745,-252.104 188.245,-262.104 195.245,-262.104"/>
</g>
<!-- 12 -->
<g id="node11" class="node"><title>12</title>
<ellipse fill="none" stroke="red" cx="191.745" cy="-162" rx="34.394" ry="18"/>
<text text-anchor="middle" x="191.745" y="-158.3" font-family="Times New Roman,serif" font-size="14.00">12 call</text>
</g>
<!-- 13&#45;&gt;12 -->
<g id="edge10" class="edge"><title>13&#45;&gt;12</title>
<path fill="none" stroke="black" d="M191.745,-215.697C191.745,-207.983 191.745,-198.712 191.745,-190.112"/>
<polygon fill="black" stroke="black" points="195.245,-190.104 191.745,-180.104 188.245,-190.104 195.245,-190.104"/>
</g>
<!-- 10 -->
<g id="node12" class="node"><title>10</title>
<ellipse fill="none" stroke="red" cx="191.745" cy="-90" rx="40.8928" ry="18"/>
<text text-anchor="middle" x="191.745" y="-86.3" font-family="Times New Roman,serif" font-size="14.00">10 name</text>
</g>
<!-- 12&#45;&gt;10 -->
<g id="edge11" class="edge"><title>12&#45;&gt;10</title>
<path fill="none" stroke="black" d="M191.745,-143.697C191.745,-135.983 191.745,-126.712 191.745,-118.112"/>
<polygon fill="black" stroke="black" points="195.245,-118.104 191.745,-108.104 188.245,-118.104 195.245,-118.104"/>
</g>
<!-- 7 -->
<g id="node13" class="node"><title>7</title>
<ellipse fill="none" stroke="red" cx="61.7445" cy="-18" rx="61.99" ry="18"/>
<text text-anchor="middle" x="61.7445" y="-14.3" font-family="Times New Roman,serif" font-size="14.00">7 nameiterator</text>
</g>
<!-- 10&#45;&gt;7 -->
<g id="edge12" class="edge"><title>10&#45;&gt;7</title>
<path fill="none" stroke="black" d="M166.679,-75.5033C147.441,-65.144 120.581,-50.6813 98.8532,-38.9816"/>
<polygon fill="black" stroke="black" points="100.357,-35.816 89.8925,-34.1566 97.0379,-41.9793 100.357,-35.816"/>
</g>
<!-- 8 -->
<g id="node14" class="node"><title>8</title>
<ellipse fill="none" stroke="red" cx="191.745" cy="-18" rx="50.8918" ry="18"/>
<text text-anchor="middle" x="191.745" y="-14.3" font-family="Times New Roman,serif" font-size="14.00">8 operator.</text>
</g>
<!-- 10&#45;&gt;8 -->
<g id="edge13" class="edge"><title>10&#45;&gt;8</title>
<path fill="none" stroke="black" d="M191.745,-71.6966C191.745,-63.9827 191.745,-54.7125 191.745,-46.1124"/>
<polygon fill="black" stroke="black" points="195.245,-46.1043 191.745,-36.1043 188.245,-46.1044 195.245,-46.1043"/>
</g>
<!-- 9 -->
<g id="node15" class="node"><title>9</title>
<ellipse fill="none" stroke="red" cx="325.745" cy="-18" rx="65.7887" ry="18"/>
<text text-anchor="middle" x="325.745" y="-14.3" font-family="Times New Roman,serif" font-size="14.00">9 namehasNext</text>
</g>
<!-- 10&#45;&gt;9 -->
<g id="edge14" class="edge"><title>10&#45;&gt;9</title>
<path fill="none" stroke="black" d="M217.264,-75.6688C237.153,-65.2792 265.081,-50.6899 287.619,-38.9164"/>
<polygon fill="black" stroke="black" points="289.349,-41.9612 296.592,-34.2287 286.108,-35.7567 289.349,-41.9612"/>
</g>
</g>
</svg>
